<?xml version="1.0" encoding="UTF-8"?>
<svg fill="#fff" width="100pt" height="100pt" version="1.1" viewBox="0 0 100 100" xmlns="http://www.w3.org/2000/svg">
 <path d="m85.938 22.469h-39.18l-8.4883-10.094c-0.39844-0.46875-0.98047-0.74219-1.5938-0.74219h-30.094c-0.55469 0-1.082 0.22266-1.4727 0.61328s-0.60938 0.91797-0.60938 1.4727v65.082c0.003906 5.2812 4.2812 9.5586 9.5625 9.5664h71.875c5.2812-0.007813 9.5586-4.2852 9.5625-9.5664v-46.77c-0.003906-5.2812-4.2812-9.5586-9.5625-9.5625zm-77.273-6.668h27.039l5.6094 6.668h-32.648zm82.672 63c-0.003907 2.9805-2.418 5.3945-5.3984 5.3984h-71.875c-2.9805-0.003907-5.3945-2.418-5.3984-5.3984v-52.168l77.273 0.003907c2.9805 0 5.3945 2.4141 5.3984 5.3945z"/>
</svg>
