<?xml version="1.0" encoding="UTF-8"?>
<svg fill="#fff" width="100pt" height="100pt" version="1.1" viewBox="0 0 100 100" xmlns="http://www.w3.org/2000/svg">
 <path d="m96.582 90.977-23.391-23.367c5.8594-7.1484 9.0703-16.094 9.0703-25.332 0-22.062-17.949-40-40-40-5.3906 0-10.625 1.0547-15.559 3.1445-4.7656 2.0234-9.043 4.9023-12.715 8.5742s-6.5625 7.9492-8.5859 12.715c-2.0898 4.9297-3.1523 10.164-3.1523 15.559 0 22.062 17.949 40 40 40 9.25 0 18.184-3.2109 25.332-9.0703l23.367 23.367c0.75 0.75 1.7461 1.1641 2.8047 1.1641 1.0625 0 2.0625-0.41016 2.8047-1.1641 1.5625-1.5312 1.5625-4.043 0.019531-5.5859zm-22.238-48.711c0 17.695-14.395 32.078-32.078 32.078-17.695 0-32.078-14.395-32.078-32.078 0-17.688 14.395-32.078 32.078-32.078 17.688 0 32.078 14.395 32.078 32.078z"/>
</svg>
