<svg xmlns="http://www.w3.org/2000/svg" width="52.694" height="51.801" viewBox="0 0 52.694 51.801"><path d="M72.4,50.4a9.524,9.524,0,0,0-.1-1.7l4-.7-.8-4.4-4,.7A23.052,23.052,0,0,0,66,34.7l2.6-3.1-3.4-2.9-2.6,3.1A22.2,22.2,0,0,0,52.2,28V24H47.8v4.1a22.141,22.141,0,0,0-10.4,3.8l-2.6-3.1-3.4,2.9L34,34.8a21.428,21.428,0,0,0-5.5,9.6l-4-.7L23.6,48l4,.7c0,.6-.1,1.1-.1,1.7a21.7,21.7,0,0,0,2,9.2l-3.5,2,2.2,3.8,3.5-2a22.546,22.546,0,0,0,8.5,7.1l-1.4,3.8L43,75.8,44.4,72a20.252,20.252,0,0,0,5.5.7,19.753,19.753,0,0,0,5.5-.7l1.4,3.8L61,74.3l-1.4-3.8a22.546,22.546,0,0,0,8.5-7.1l3.5,2,2.2-3.8-3.5-2a20.337,20.337,0,0,0,2.1-9.2ZM50,68.5A18.1,18.1,0,1,1,68.1,50.4,18.1,18.1,0,0,1,50,68.5Z" transform="translate(-23.602 -24)" fill="#fff"/></svg>